REM DIRINDEX 1\2\4\18,1\2\4\19,1\2\5\20,1\2\5\21,1\2\6\22,1\2\7\23,1\2\8\24,1\2\8\25,1\2\9\26,1\2\10\27,1\3\11\28,1\3\11\29,1\3\11\30,1\3\11\31,1\3\12\32,1\3\12\33,1\3\12\34,1\3\12\35,1\3\13\36,1\3\13\37,1\3\14\38,1\3\14\39,1\3\15\40,1\3\15\41,1\3\15\42,1\3\16\43,1\3\16\44,1\3\17\45,1\3\17\46
REM DIRNAME folder01,folder02,folder03,folder04,folder05,folder06,folder07,folder08,folder09,folder10,folder11,folder12,folder13,folder14,folder15,folder16,folder17,folder18,folder19,folder20,folder21,folder22,folder23,folder24,folder25,folder26,folder27,folder28,folder29,folder30,folder31,folder32,folder33,folder34,folder35,folder36,folder37,folder38,folder39,folder40,folder41,folder42,folder43,folder44,folder45,folder46
TITLE ""
FILE "10.mp3" MP3
  TRACK 01 AUDIO
    TITLE "0:"
    INDEX 01 00:00:00
  TRACK 02 AUDIO
    TITLE "22:cjc024_1633"
    INDEX 01 00:00:13
  TRACK 03 AUDIO
    TITLE "0:"
    INDEX 01 00:01:58
  TRACK 04 AUDIO
    TITLE "22:cjc024_1634"
    INDEX 01 00:02:32
  TRACK 05 AUDIO
    TITLE "0:"
    INDEX 01 00:04:11
  TRACK 06 AUDIO
    TITLE "22:cjc024_1635"
    INDEX 01 00:04:60
  TRACK 07 AUDIO
    TITLE "0:"
    INDEX 01 00:06:41
  TRACK 08 AUDIO
    TITLE "22:cjc024_1636"
    INDEX 01 00:07:11
  TRACK 09 AUDIO
    TITLE "0:"
    INDEX 01 00:09:30
  TRACK 10 AUDIO
    TITLE "22:cjc024_1637"
    INDEX 01 00:10:10
  TRACK 11 AUDIO
    TITLE "0:"
    INDEX 01 00:11:72
  TRACK 12 AUDIO
    TITLE "22:cjc024_1638"
    INDEX 01 00:12:44
  TRACK 13 AUDIO
    TITLE "0:"
    INDEX 01 00:14:56
  TRACK 14 AUDIO
    TITLE "22:cjc024_1639"
    INDEX 01 00:15:36
  TRACK 15 AUDIO
    TITLE "0:"
    INDEX 01 00:17:18
  TRACK 16 AUDIO
    TITLE "22:cjc024_1640"
    INDEX 01 00:18:01
  TRACK 17 AUDIO
    TITLE "0:"
    INDEX 01 00:19:54
  TRACK 18 AUDIO
    TITLE "22:cjc024_1641"
    INDEX 01 00:20:39
  TRACK 19 AUDIO
    TITLE "0:"
    INDEX 01 00:22:34
  TRACK 20 AUDIO
    TITLE "22:cjc024_1642"
    INDEX 01 00:23:12
  TRACK 21 AUDIO
    TITLE "0:"
    INDEX 01 00:25:09
  TRACK 22 AUDIO
    TITLE "22:cjc024_1643"
    INDEX 01 00:25:60
  TRACK 23 AUDIO
    TITLE "0:"
    INDEX 01 00:27:45
  TRACK 24 AUDIO
    TITLE "22:cjc024_1644"
    INDEX 01 00:28:25
  TRACK 25 AUDIO
    TITLE "0:"
    INDEX 01 00:30:05
  TRACK 26 AUDIO
    TITLE "22:cjc024_1645"
    INDEX 01 00:30:54
  TRACK 27 AUDIO
    TITLE "0:"
    INDEX 01 00:32:70
  TRACK 28 AUDIO
    TITLE "22:cjc024_1646"
    INDEX 01 00:33:44
  TRACK 29 AUDIO
    TITLE "0:"
    INDEX 01 00:35:41
  TRACK 30 AUDIO
    TITLE "22:cjc024_1647"
    INDEX 01 00:36:15
  TRACK 31 AUDIO
    TITLE "0:"
    INDEX 01 00:38:18
  TRACK 32 AUDIO
    TITLE "22:cjc024_1648"
    INDEX 01 00:38:67
  TRACK 33 AUDIO
    TITLE "0:"
    INDEX 01 00:39:66
  TRACK 34 AUDIO
    TITLE "22:cjc024_1649"
    INDEX 01 00:40:40
  TRACK 35 AUDIO
    TITLE "0:"
    INDEX 01 00:41:51
  TRACK 36 AUDIO
    TITLE "22:cjc024_1650"
    INDEX 01 00:42:27
  TRACK 37 AUDIO
    TITLE "0:"
    INDEX 01 00:43:39
  TRACK 38 AUDIO
    TITLE "22:cjc024_1651"
    INDEX 01 00:44:12
  TRACK 39 AUDIO
    TITLE "0:"
    INDEX 01 00:45:22
  TRACK 40 AUDIO
    TITLE "22:cjc024_1652"
    INDEX 01 00:45:73
  TRACK 41 AUDIO
    TITLE "0:"
    INDEX 01 00:47:21
  TRACK 42 AUDIO
    TITLE "22:cjc024_1653"
    INDEX 01 00:47:74
  TRACK 43 AUDIO
    TITLE "0:"
    INDEX 01 00:49:37
  TRACK 44 AUDIO
    TITLE "22:cjc024_1654"
    INDEX 01 00:50:09
  TRACK 45 AUDIO
    TITLE "0:"
    INDEX 01 00:51:20
  TRACK 46 AUDIO
    TITLE "22:cjc024_1655"
    INDEX 01 00:51:67
  TRACK 47 AUDIO
    TITLE "0:"
    INDEX 01 00:53:04
  TRACK 48 AUDIO
    TITLE "22:cjc024_1656"
    INDEX 01 00:53:57
  TRACK 49 AUDIO
    TITLE "0:"
    INDEX 01 00:55:03
  TRACK 50 AUDIO
    TITLE "22:cjc024_1657"
    INDEX 01 00:55:57
  TRACK 51 AUDIO
    TITLE "0:"
    INDEX 01 00:57:13
  TRACK 52 AUDIO
    TITLE "22:cjc024_1658"
    INDEX 01 00:57:62
  TRACK 53 AUDIO
    TITLE "0:"
    INDEX 01 00:58:69
  TRACK 54 AUDIO
    TITLE "22:cjc024_1659"
    INDEX 01 00:59:45
  TRACK 55 AUDIO
    TITLE "0:"
    INDEX 01 01:00:59
  TRACK 56 AUDIO
    TITLE "22:cjc024_1660"
    INDEX 01 01:01:33
  TRACK 57 AUDIO
    TITLE "0:"
    INDEX 01 01:02:42
  TRACK 58 AUDIO
    TITLE "22:cjc024_1661"
    INDEX 01 01:03:18
  TRACK 59 AUDIO
    TITLE "0:"
    INDEX 01 01:04:33
  TRACK 60 AUDIO
    TITLE "22:cjc024_1662"
    INDEX 01 01:05:13
  TRACK 61 AUDIO
    TITLE "0:"
    INDEX 01 01:06:43
  TRACK 62 AUDIO
    TITLE "22:cjc024_1663"
    INDEX 01 01:07:17
  TRACK 63 AUDIO
    TITLE "0:"
    INDEX 01 01:08:52
  TRACK 64 AUDIO
    TITLE "22:cjc024_1664"
    INDEX 01 01:09:28
  TRACK 65 AUDIO
    TITLE "0:"
    INDEX 01 01:10:30
  TRACK 66 AUDIO
    TITLE "22:cjc024_1665"
    INDEX 01 01:11:02
  TRACK 67 AUDIO
    TITLE "0:"
    INDEX 01 01:12:07
  TRACK 68 AUDIO
    TITLE "22:cjc024_1666"
    INDEX 01 01:12:58
  TRACK 69 AUDIO
    TITLE "0:"
    INDEX 01 01:14:31
  TRACK 70 AUDIO
    TITLE "22:cjc024_1667"
    INDEX 01 01:15:09
  TRACK 71 AUDIO
    TITLE "0:"
    INDEX 01 01:16:28
  TRACK 72 AUDIO
    TITLE "22:cjc024_1668"
    INDEX 01 01:17:04
  TRACK 73 AUDIO
    TITLE "0:"
    INDEX 01 01:18:07
  TRACK 74 AUDIO
    TITLE "22:cjc024_1669"
    INDEX 01 01:18:56
  TRACK 75 AUDIO
    TITLE "0:"
    INDEX 01 01:20:26
  TRACK 76 AUDIO
    TITLE "22:cjc024_1670"
    INDEX 01 01:21:00
  TRACK 77 AUDIO
    TITLE "0:"
    INDEX 01 01:22:25
  TRACK 78 AUDIO
    TITLE "22:cjc024_1671"
    INDEX 01 01:23:03
  TRACK 79 AUDIO
    TITLE "0:"
    INDEX 01 01:24:12
  TRACK 80 AUDIO
    TITLE "22:cjc024_1672"
    INDEX 01 01:24:63
  TRACK 81 AUDIO
    TITLE "0:"
    INDEX 01 01:26:13
  TRACK 82 AUDIO
    TITLE "22:cjc024_1673"
    INDEX 01 01:26:68
  TRACK 83 AUDIO
    TITLE "0:"
    INDEX 01 01:27:73
  TRACK 84 AUDIO
    TITLE "22:cjc024_1674"
    INDEX 01 01:28:49
  TRACK 85 AUDIO
    TITLE "0:"
    INDEX 01 01:29:70
  TRACK 86 AUDIO
    TITLE "22:cjc024_1675"
    INDEX 01 01:30:58
  TRACK 87 AUDIO
    TITLE "0:"
    INDEX 01 01:32:59
  TRACK 88 AUDIO
    TITLE "22:cjc024_1676"
    INDEX 01 01:33:33
  TRACK 89 AUDIO
    TITLE "0:"
    INDEX 01 01:34:42
  TRACK 90 AUDIO
    TITLE "22:cjc024_1677"
    INDEX 01 01:35:18
  TRACK 91 AUDIO
    TITLE "0:"
    INDEX 01 01:36:37
  TRACK 92 AUDIO
    TITLE "22:cjc024_1678"
    INDEX 01 01:37:09
  TRACK 93 AUDIO
    TITLE "0:"
    INDEX 01 01:38:26
  TRACK 94 AUDIO
    TITLE "22:cjc024_1679"
    INDEX 01 01:39:04
  TRACK 95 AUDIO
    TITLE "0:"
    INDEX 01 01:40:17
  TRACK 96 AUDIO
    TITLE "22:cjc024_1680"
    INDEX 01 01:40:68
  TRACK 97 AUDIO
    TITLE "0:"
    INDEX 01 01:41:69
  TRACK 98 AUDIO
    TITLE "22:cjc024_1681"
    INDEX 01 01:42:45
  TRACK 99 AUDIO
    TITLE "0:"
    INDEX 01 01:43:72
  TRACK 100 AUDIO
    TITLE "22:cjc024_1682"
    INDEX 01 01:44:50
  TRACK 101 AUDIO
    TITLE "0:"
    INDEX 01 01:45:51
  TRACK 102 AUDIO
    TITLE "22:cjc024_1683"
    INDEX 01 01:46:25
  TRACK 103 AUDIO
    TITLE "0:"
    INDEX 01 01:47:39
  TRACK 104 AUDIO
    TITLE "22:cjc024_1684"
    INDEX 01 01:48:18
  TRACK 105 AUDIO
    TITLE "0:"
    INDEX 01 01:49:33
  TRACK 106 AUDIO
    TITLE "22:cjc024_1685"
    INDEX 01 01:50:06
  TRACK 107 AUDIO
    TITLE "0:"
    INDEX 01 01:51:27
  TRACK 108 AUDIO
    TITLE "22:cjc024_1686"
    INDEX 01 01:52:10
  TRACK 109 AUDIO
    TITLE "0:"
    INDEX 01 01:53:43
  TRACK 110 AUDIO
    TITLE "22:cjc024_1687"
    INDEX 01 01:54:17
  TRACK 111 AUDIO
    TITLE "0:"
    INDEX 01 01:55:42
  TRACK 112 AUDIO
    TITLE "22:cjc024_1688"
    INDEX 01 01:56:18
  TRACK 113 AUDIO
    TITLE "0:"
    INDEX 01 01:57:31
  TRACK 114 AUDIO
    TITLE "22:cjc024_1689"
    INDEX 01 01:58:13
  TRACK 115 AUDIO
    TITLE "0:"
    INDEX 01 01:59:42
  TRACK 116 AUDIO
    TITLE "22:cjc024_1690"
    INDEX 01 02:00:12
  TRACK 117 AUDIO
    TITLE "0:"
    INDEX 01 02:01:37
  TRACK 118 AUDIO
    TITLE "22:cjc024_1691"
    INDEX 01 02:02:13
  TRACK 119 AUDIO
    TITLE "0:"
    INDEX 01 02:03:28
  TRACK 120 AUDIO
    TITLE "22:cjc024_1692"
    INDEX 01 02:04:02
  TRACK 121 AUDIO
    TITLE "0:"
    INDEX 01 02:05:13
  TRACK 122 AUDIO
    TITLE "22:cjc024_1693"
    INDEX 01 02:05:62
  TRACK 123 AUDIO
    TITLE "0:"
    INDEX 01 02:06:71
  TRACK 124 AUDIO
    TITLE "22:cjc024_1694"
    INDEX 01 02:07:47
  TRACK 125 AUDIO
    TITLE "0:"
    INDEX 01 02:08:66
  TRACK 126 AUDIO
    TITLE "22:cjc024_1695"
    INDEX 01 02:09:42
  TRACK 127 AUDIO
    TITLE "0:"
    INDEX 01 02:10:67
  TRACK 128 AUDIO
    TITLE "22:cjc024_1696"
    INDEX 01 02:11:43
  TRACK 129 AUDIO
    TITLE "0:"
    INDEX 01 02:12:44
  TRACK 130 AUDIO
    TITLE "22:cjc024_1697"
    INDEX 01 02:13:22
  TRACK 131 AUDIO
    TITLE "0:"
    INDEX 01 02:14:33
  TRACK 132 AUDIO
    TITLE "22:cjc024_1698"
    INDEX 01 02:15:09
  TRACK 133 AUDIO
    TITLE "0:"
    INDEX 01 02:16:23
  TRACK 134 AUDIO
    TITLE "22:cjc024_1699"
    INDEX 01 02:16:72
  TRACK 135 AUDIO
    TITLE "0:"
    INDEX 01 02:18:31
  TRACK 136 AUDIO
    TITLE "22:cjc024_1700"
    INDEX 01 02:19:05
  TRACK 137 AUDIO
    TITLE "0:"
    INDEX 01 02:20:20
  TRACK 138 AUDIO
    TITLE "22:cjc024_1701"
    INDEX 01 02:20:69
  TRACK 139 AUDIO
    TITLE "0:"
    INDEX 01 02:22:33
  TRACK 140 AUDIO
    TITLE "22:cjc024_1702"
    INDEX 01 02:23:07
  TRACK 141 AUDIO
    TITLE "0:"
    INDEX 01 02:24:22
  TRACK 142 AUDIO
    TITLE "22:cjc024_1703"
    INDEX 01 02:24:73
  TRACK 143 AUDIO
    TITLE "0:"
    INDEX 01 02:26:41
  TRACK 144 AUDIO
    TITLE "22:cjc024_1704"
    INDEX 01 02:27:13
  TRACK 145 AUDIO
    TITLE "0:"
    INDEX 01 02:28:24
  TRACK 146 AUDIO
    TITLE "22:cjc024_1705"
    INDEX 01 02:29:02
  TRACK 147 AUDIO
    TITLE "0:"
    INDEX 01 02:30:15
  TRACK 148 AUDIO
    TITLE "22:cjc024_1706"
    INDEX 01 02:30:64
  TRACK 149 AUDIO
    TITLE "0:"
    INDEX 01 02:32:08
  TRACK 150 AUDIO
    TITLE "22:cjc024_1707"
    INDEX 01 02:32:61
  TRACK 151 AUDIO
    TITLE "0:"
    INDEX 01 02:34:01
  TRACK 152 AUDIO
    TITLE "22:cjc024_1708"
    INDEX 01 02:34:54
  TRACK 153 AUDIO
    TITLE "0:"
    INDEX 01 02:35:67
  TRACK 154 AUDIO
    TITLE "22:cjc024_1709"
    INDEX 01 02:36:43
  TRACK 155 AUDIO
    TITLE "0:"
    INDEX 01 02:37:54
  TRACK 156 AUDIO
    TITLE "22:cjc024_1710"
    INDEX 01 02:38:30
  TRACK 157 AUDIO
    TITLE "0:"
    INDEX 01 02:39:49
  TRACK 158 AUDIO
    TITLE "22:cjc024_1711"
    INDEX 01 02:40:25
  TRACK 159 AUDIO
    TITLE "0:"
    INDEX 01 02:41:48
  TRACK 160 AUDIO
    TITLE "22:cjc024_1712"
    INDEX 01 02:42:24
  TRACK 161 AUDIO
    TITLE "0:"
    INDEX 01 02:43:47
  TRACK 162 AUDIO
    TITLE "22:cjc024_1713"
    INDEX 01 02:44:23
  TRACK 163 AUDIO
    TITLE "0:"
    INDEX 01 02:45:42
  TRACK 164 AUDIO
    TITLE "22:cjc024_1714"
    INDEX 01 02:46:22
  TRACK 165 AUDIO
    TITLE "0:"
    INDEX 01 02:47:51
  TRACK 166 AUDIO
    TITLE "22:cjc024_1715"
    INDEX 01 02:48:23
  TRACK 167 AUDIO
    TITLE "0:"
    INDEX 01 02:49:28
  TRACK 168 AUDIO
    TITLE "22:cjc024_1716"
    INDEX 01 02:50:04
  TRACK 169 AUDIO
    TITLE "0:"
    INDEX 01 02:51:21
  TRACK 170 AUDIO
    TITLE "22:cjc024_1717"
    INDEX 01 02:51:70
  TRACK 171 AUDIO
    TITLE "0:"
    INDEX 01 02:52:69
  TRACK 172 AUDIO
    TITLE "22:cjc024_1718"
    INDEX 01 02:53:45
  TRACK 173 AUDIO
    TITLE "0:"
    INDEX 01 02:55:01
  TRACK 174 AUDIO
    TITLE "22:cjc024_1719"
    INDEX 01 02:55:52
  TRACK 175 AUDIO
    TITLE "0:"
    INDEX 01 02:56:65
  TRACK 176 AUDIO
    TITLE "22:cjc024_1720"
    INDEX 01 02:57:45
  TRACK 177 AUDIO
    TITLE "0:"
    INDEX 01 02:59:05
  TRACK 178 AUDIO
    TITLE "22:cjc024_1721"
    INDEX 01 02:59:56
  TRACK 179 AUDIO
    TITLE "0:"
    INDEX 01 03:00:65
  TRACK 180 AUDIO
    TITLE "22:cjc024_1722"
    INDEX 01 03:01:43
  TRACK 181 AUDIO
    TITLE "0:"
    INDEX 01 03:02:66
  TRACK 182 AUDIO
    TITLE "22:cjc024_1723"
    INDEX 01 03:03:48
  TRACK 183 AUDIO
    TITLE "0:"
    INDEX 01 03:04:55
  TRACK 184 AUDIO
    TITLE "22:cjc024_1724"
    INDEX 01 03:05:31
  TRACK 185 AUDIO
    TITLE "0:"
    INDEX 01 03:06:56
  TRACK 186 AUDIO
    TITLE "22:cjc024_1725"
    INDEX 01 03:07:32
  TRACK 187 AUDIO
    TITLE "0:"
    INDEX 01 03:08:59
  TRACK 188 AUDIO
    TITLE "22:cjc024_1726"
    INDEX 01 03:09:33
  TRACK 189 AUDIO
    TITLE "0:"
    INDEX 01 03:10:61
